# xmcd
#
# Track frame offsets:
#	150
#	19999
#	34882
#	41729
#	59922
#	78301
#	101785
#	126116
#	145499
#	166086
#	175944
#	191340
#	215799
#	247950
#
# Disc length: 3468 seconds
#
# Revision: 1
# Processed by: cddbd v1.5.2PL0 Copyright (c) Steve Scherf et al.
# Submitted via: audiograbber 1.83.01
#
DISCID=ce0d8a0e
DTITLE=Andreas Vollenweider - Air (For Promotion Only, Not The Final Artwork)
DYEAR=2009
DGENRE=New Age
TTITLE0=Airdance
TTITLE1=Prescious Smile
TTITLE2=Oxygenia and Icarus
TTITLE3=Windseeds
TTITLE4=Milonga Magica
TTITLE5=World Inside a Grain of Sand
TTITLE6=Tumbleweed Dreams
TTITLE7=One Breath
TTITLE8=Keep on Dancing
TTITLE9=Liebeslied
TTITLE10=Siesta
TTITLE11=The Golden Dancing Shoes
TTITLE12=Air - epilogue
TTITLE13=Airdance Videoclip (insert this CD into your computer to view video)
EXTD=YEAR: 2009
EXTT0=
EXTT1=
EXTT2=
EXTT3=
EXTT4=
EXTT5=
EXTT6=
EXTT7=
EXTT8=
EXTT9=
EXTT10=
EXTT11=
EXTT12=
EXTT13=
PLAYORDER=
